<svg width="514" height="190" viewBox="0 0 514 190" fill="none" xmlns="http://www.w3.org/2000/svg">
<path d="M185.885 92.0879C172.293 87.741 158.531 85.7002 144.967 85.7002C68.9191 85.7002 -0.938011 149.734 0.19124 230H46.096C45.8035 175.557 91.4021 131.476 144.286 131.816C197.048 131.659 242.763 175.462 242.477 230H288.382C288.382 165.013 245.116 109.993 185.892 92.0879H185.885Z" fill="#F3943A"/>
<path d="M474.813 122.401C457.119 32.8027 378.439 -19.9932 298.609 -20C250.398 -20 201.779 -0.755102 165.895 41.2721C184.065 43.3401 201.473 47.9456 217.731 54.7891C310.446 -20.1497 447.738 58.7755 431.003 175.912C475.684 153.02 535.112 181.286 546.153 230H592.922C583.554 171.653 534.792 126.374 474.813 122.401Z" fill="#F3943A"/>
</svg>
