<svg width="250" height="190" viewBox="0 0 250 190" fill="none" xmlns="http://www.w3.org/2000/svg">
<mask id="mask0_47_4143" style="mask-type:alpha" maskUnits="userSpaceOnUse" x="0" y="0" width="250" height="190">
<rect width="250" height="190" rx="13" fill="#262E45"/>
</mask>
<g mask="url(#mask0_47_4143)">
<path d="M200.078 -80.792H200.009C177.325 -80.792 154.682 -77.7572 132.867 -71.4907V-44.8635C213.851 -70.9754 308.128 -46.5912 366 14.7673V-20.3277C320.89 -59.3402 260.406 -80.7806 200.078 -80.792Z" fill="url(#paint0_linear_47_4143)"/>
<path d="M107.135 -62.8711C80.2597 -52.2096 55.2759 -36.9335 33.1367 -17.4329V17.6317C54.7383 -4.05492 79.5619 -23.0478 107.135 -35.0694V-62.8711Z" fill="url(#paint1_linear_47_4143)"/>
<path d="M257.61 5.16265V-21.6123C239.318 -27.0377 220.416 -29.6709 201.56 -29.6709C148.134 -29.6709 95.0702 -8.52602 57.2665 30.1531C48.2751 39.1627 41.2245 44.3608 33.1406 48.1154V77.228C44.7021 70.4234 55.2379 66.6802 66.1359 56.8598C114.414 4.35565 189.24 -18.6078 257.614 5.16643L257.61 5.16265Z" fill="url(#paint2_linear_47_4143)"/>
<path d="M361.347 120.506C346.849 111.148 334.922 99.7896 325.888 86.7413C318.067 75.4509 308.809 65.4714 298.517 56.8596C271.558 34.3129 237.255 21.4805 201.267 21.4805C201.156 21.4805 201.042 21.4805 200.935 21.4805C160.447 21.4805 122.094 37.7341 93.8537 66.1155C73.8727 87.9575 54.1205 92.466 33.1367 107.985V143.042C42.7764 131.85 54.9976 122.621 68.4656 116.297C83.3827 109.159 97.6783 98.6265 112.145 84.093C147.036 48.0963 203.867 36.9802 249.816 56.8558C271.658 66.0018 290.822 81.2097 304.683 101.229C315.642 117.051 329.984 130.751 347.33 141.943C354.3 146.444 360.523 151.752 365.999 157.647V123.734C364.462 122.643 362.945 121.533 361.351 120.503L361.347 120.506Z" fill="url(#paint3_linear_47_4143)"/>
<path d="M137.095 135.229C129.477 132.808 121.763 131.672 114.159 131.672C71.5319 131.672 32.3746 167.335 33.0076 212.038H58.7388C58.5748 181.717 84.1344 157.166 113.778 157.356C143.353 157.269 168.977 181.664 168.817 212.038H194.548C194.548 175.845 170.297 145.201 137.099 135.229H137.095Z" fill="url(#paint4_linear_47_4143)"/>
<path d="M299.048 152.112C289.13 102.211 245.027 72.8065 200.28 72.8027C173.256 72.8027 146.003 83.521 125.889 106.928C136.074 108.08 145.832 110.645 154.945 114.456C206.915 72.7194 283.872 116.676 274.491 181.914C299.536 169.165 332.848 184.907 339.037 212.038H365.252C360.001 179.543 332.669 154.325 299.048 152.112Z" fill="url(#paint5_linear_47_4143)"/>
<path d="M219.151 132.805C214.464 126.251 207.284 123.796 199.784 123.796C192.729 123.796 185.393 125.963 179.566 128.926C204.935 148.654 220.421 179.99 220.272 212.039H246.003C245.995 199.612 244.238 187.409 240.79 175.614C236.23 159.952 228.832 145.479 219.151 132.805Z" fill="url(#paint6_linear_47_4143)"/>
</g>
<defs>
<linearGradient id="paint0_linear_47_4143" x1="140.451" y1="-31.1782" x2="372.703" y2="-29.1313" gradientUnits="userSpaceOnUse">
<stop stop-color="#262E45"/>
<stop offset="0.811948" stop-color="#333D5E"/>
</linearGradient>
<linearGradient id="paint1_linear_47_4143" x1="35.544" y1="-21.0745" x2="109.267" y2="-20.8297" gradientUnits="userSpaceOnUse">
<stop stop-color="#262E45"/>
<stop offset="0.811948" stop-color="#333D5E"/>
</linearGradient>
<linearGradient id="paint2_linear_47_4143" x1="40.4431" y1="25.8304" x2="264.072" y2="27.5268" gradientUnits="userSpaceOnUse">
<stop stop-color="#262E45"/>
<stop offset="0.811948" stop-color="#333D5E"/>
</linearGradient>
<linearGradient id="paint3_linear_47_4143" x1="43.9653" y1="92.1775" x2="375.569" y2="95.1058" gradientUnits="userSpaceOnUse">
<stop stop-color="#262E45"/>
<stop offset="0.811948" stop-color="#333D5E"/>
</linearGradient>
<linearGradient id="paint4_linear_47_4143" x1="38.2554" y1="173.398" x2="199.197" y2="174.566" gradientUnits="userSpaceOnUse">
<stop stop-color="#262E45"/>
<stop offset="0.811948" stop-color="#333D5E"/>
</linearGradient>
<linearGradient id="paint5_linear_47_4143" x1="133.676" y1="145.093" x2="372.144" y2="146.574" gradientUnits="userSpaceOnUse">
<stop stop-color="#262E45"/>
<stop offset="0.811948" stop-color="#333D5E"/>
</linearGradient>
<linearGradient id="paint6_linear_47_4143" x1="181.728" y1="169.611" x2="247.918" y2="169.791" gradientUnits="userSpaceOnUse">
<stop stop-color="#262E45"/>
<stop offset="0.811948" stop-color="#333D5E"/>
</linearGradient>
</defs>
</svg>
