<svg width="106" height="94" viewBox="0 0 106 94" fill="none" xmlns="http://www.w3.org/2000/svg">
<path d="M96.2587 37.9404C97.2185 39.3479 97.9181 40.9668 98.2742 42.7408C99.7004 49.8408 95.1021 56.7524 88.002 58.1796C86.4228 58.4972 84.8528 58.5159 83.3506 58.2765" stroke="white" strokeWidth="1.91027" strokeMiterlimit="10"/>
<path d="M31.9804 61.3994L27.7089 71.4675C27.2196 72.621 26.0869 73.3705 24.8335 73.3705H13.6931" stroke="#262E45" strokeWidth="1.91027" strokeMiterlimit="10"/>
<path d="M13.6931 84.8545L30.7321 84.8222C33.0308 84.818 35.1046 83.4418 36.002 81.3263L42.3222 66.4277" stroke="#262E45" strokeWidth="1.91027" strokeMiterlimit="10"/>
<path d="M54.369 55.9367L51.6019 62.4589C50.0819 66.0412 45.9458 67.7131 42.3635 66.1932L31.905 61.7562C28.3228 60.2362 26.6508 56.1001 28.1708 52.5178L30.5402 46.9336" stroke="white" strokeWidth="1.91027" strokeMiterlimit="10"/>
<path d="M103.999 31.3325L95.6882 27.9365L95.7122 27.8772C95.7122 27.8772 36.4593 3.62676 31.1488 1.60711C25.8384 -0.412545 20.9017 2.85534 18.907 7.7379L10.8867 27.366C8.71194 32.6879 11.2625 38.7656 16.5855 40.9414L70.1802 62.8422C75.5021 65.0169 81.5798 62.4653 83.7556 57.1434L87.5482 46.7734L104 31.3345L103.999 31.3325Z" stroke="#262E45" strokeWidth="1.91027" strokeMiterlimit="10"/>
<path d="M15.162 18.2305L87.3188 46.8866" stroke="#262E45" strokeWidth="1.91027" strokeMiterlimit="10"/>
<path d="M11.2607 66.6416H3.89518C2.29622 66.6416 1 67.9378 1 69.5368V89.346C1 90.945 2.29622 92.2412 3.89518 92.2412H11.2607C12.8596 92.2412 14.1559 90.945 14.1559 89.346V69.5368C14.1559 67.9378 12.8596 66.6416 11.2607 66.6416Z" stroke="white" strokeWidth="1.91027" strokeMiterlimit="10"/>
</svg>
