<svg width="602" height="570" viewBox="0 0 602 570" fill="none" xmlns="http://www.w3.org/2000/svg">
<path d="M242.379 -58.4717H242.23C193.165 -58.4717 144.191 -51.8653 97.0059 -38.2237V19.7407C272.169 -37.102 476.084 15.9798 601.259 149.55V73.1525C503.689 -11.7735 372.865 -58.4469 242.379 -58.4717Z" fill="url(#paint0_linear_47_2756)"/>
<path d="M41.3507 -19.4609C-16.7787 3.74793 -70.8172 37.0024 -118.703 79.453V155.785C-71.9802 108.575 -18.288 67.23 41.3507 41.0603V-19.4609Z" fill="url(#paint1_linear_47_2756)"/>
<path d="M366.819 128.642V70.3562C327.255 58.5456 286.371 52.8135 245.587 52.8135C130.029 52.8135 15.2547 98.8436 -66.5125 183.044C-85.9604 202.657 -101.21 213.972 -118.695 222.146V285.521C-93.6885 270.708 -70.9002 262.559 -47.3285 241.181C57.095 126.886 218.938 76.8966 366.827 128.651L366.819 128.642Z" fill="url(#paint2_linear_47_2756)"/>
<path d="M422.475 90.5801V152.305C464.637 174.434 502.633 204.497 534.337 241.182C556.961 267.088 572.639 296.771 601.259 318.248V236.398C555.006 171.844 493.033 121.921 422.475 90.5801Z" fill="url(#paint3_linear_47_2756)"/>
<path d="M591.196 379.733C559.839 359.361 534.04 334.635 514.501 306.23C497.586 281.652 477.56 259.927 455.3 241.181C396.989 192.099 322.793 164.164 244.952 164.164C244.713 164.164 244.465 164.164 244.234 164.164C156.661 164.164 73.7062 199.546 12.6242 261.33C-30.5935 308.877 -73.3163 318.692 -118.703 352.474V428.79C-97.853 404.426 -71.4193 384.335 -42.2886 370.57C-10.0239 355.031 20.8965 332.103 52.1881 300.465C127.654 222.104 250.577 197.905 349.961 241.172C397.204 261.082 438.656 294.188 468.636 337.769C492.34 372.211 523.359 402.034 560.878 426.398C575.955 436.196 589.415 447.751 601.258 460.584V386.76C597.935 384.384 594.652 381.968 591.205 379.724L591.196 379.733Z" fill="url(#paint4_linear_47_2756)"/>
<path d="M106.152 411.784C89.6735 406.513 72.9885 404.039 56.5427 404.039C-35.6577 404.039 -120.353 481.674 -118.984 578.988H-63.3285C-63.6832 512.982 -8.39924 459.537 55.7179 459.95C119.687 459.76 175.111 512.867 174.764 578.988H230.419C230.419 500.198 177.965 433.491 106.161 411.784H106.152Z" fill="url(#paint5_linear_47_2756)"/>
<path d="M456.446 448.537C434.994 339.907 339.601 275.897 242.815 275.889C184.364 275.889 125.418 299.221 81.9121 350.175C103.942 352.682 125.047 358.266 144.759 366.563C257.166 275.707 423.62 371.396 403.331 513.413C457.501 485.659 529.553 519.928 542.939 578.99H599.641C588.284 508.25 529.165 453.353 456.446 448.537Z" fill="url(#paint6_linear_47_2756)"/>
<path d="M283.634 406.505C273.498 392.237 257.968 386.893 241.745 386.893C226.487 386.893 210.618 391.61 198.016 398.06C252.887 441.005 286.381 509.222 286.059 578.988H341.714C341.698 551.936 337.896 525.371 330.44 499.696C320.576 465.6 304.575 434.094 283.634 406.505Z" fill="url(#paint7_linear_47_2756)"/>
<defs>
<linearGradient id="paint0_linear_47_2756" x1="113.41" y1="49.5321" x2="615.758" y2="53.9311" gradientUnits="userSpaceOnUse">
<stop stop-color="#262E45"/>
<stop offset="0.811948" stop-color="#333D5E"/>
</linearGradient>
<linearGradient id="paint1_linear_47_2756" x1="-113.496" y1="71.5257" x2="45.9633" y2="72.0518" gradientUnits="userSpaceOnUse">
<stop stop-color="#262E45"/>
<stop offset="0.811948" stop-color="#333D5E"/>
</linearGradient>
<linearGradient id="paint2_linear_47_2756" x1="-102.9" y1="173.634" x2="380.797" y2="177.279" gradientUnits="userSpaceOnUse">
<stop stop-color="#262E45"/>
<stop offset="0.811948" stop-color="#333D5E"/>
</linearGradient>
<linearGradient id="paint3_linear_47_2756" x1="428.291" y1="208.784" x2="606.412" y2="209.289" gradientUnits="userSpaceOnUse">
<stop stop-color="#262E45"/>
<stop offset="0.811948" stop-color="#333D5E"/>
</linearGradient>
<linearGradient id="paint4_linear_47_2756" x1="-95.2815" y1="318.064" x2="621.96" y2="324.357" gradientUnits="userSpaceOnUse">
<stop stop-color="#262E45"/>
<stop offset="0.811948" stop-color="#333D5E"/>
</linearGradient>
<linearGradient id="paint5_linear_47_2756" x1="-107.633" y1="494.872" x2="240.475" y2="497.383" gradientUnits="userSpaceOnUse">
<stop stop-color="#262E45"/>
<stop offset="0.811948" stop-color="#333D5E"/>
</linearGradient>
<linearGradient id="paint6_linear_47_2756" x1="98.7547" y1="433.257" x2="614.548" y2="436.44" gradientUnits="userSpaceOnUse">
<stop stop-color="#262E45"/>
<stop offset="0.811948" stop-color="#333D5E"/>
</linearGradient>
<linearGradient id="paint7_linear_47_2756" x1="202.69" y1="486.628" x2="345.856" y2="487.014" gradientUnits="userSpaceOnUse">
<stop stop-color="#262E45"/>
<stop offset="0.811948" stop-color="#333D5E"/>
</linearGradient>
</defs>
</svg>
