<svg width="167" height="168" viewBox="0 0 167 168" fill="none" xmlns="http://www.w3.org/2000/svg">
<ellipse cx="83.5" cy="84" rx="83.5" ry="84" fill="#262E45" fill-opacity="0.5"/>
<path d="M166.75 84C166.75 130.255 129.476 167.75 83.5 167.75C37.5237 167.75 0.25 130.255 0.25 84C0.25 37.7447 37.5237 0.25 83.5 0.25C129.476 0.25 166.75 37.7447 166.75 84Z" stroke="white" stroke-opacity="0.75" strokeWidth="0.5"/>
<path d="M62.4903 74.3288C59.9039 73.5016 57.2852 73.1133 54.704 73.1133C40.233 73.1133 26.94 85.2982 27.1549 100.572H35.8901C35.8344 90.212 44.5113 81.8238 54.5745 81.8885C64.6145 81.8588 73.3134 90.1939 73.259 100.572H81.9942C81.9942 88.2056 73.7613 77.7359 62.4916 74.3288H62.4903Z" stroke="#F58500" strokeWidth="1.8"/>
<path d="M117.469 80.0973C114.102 63.0477 99.1302 53.0013 83.9395 53C74.7656 53 65.5139 56.6621 58.6855 64.6594C62.1431 65.0529 65.4557 65.9292 68.5495 67.2315C86.1919 52.9715 112.317 67.9901 109.133 90.2797C117.635 85.9238 128.943 91.3023 131.044 100.572H139.944C138.161 89.4693 128.883 80.8533 117.469 80.0973Z" stroke="white" strokeWidth="1.8"/>
</svg>
