<svg width="49" height="49" viewBox="0 0 49 49" fill="none" xmlns="http://www.w3.org/2000/svg">
<circle cx="24.29" cy="24.71" r="24.29" fill="#D9D9D9"/>
<path d="M13.8772 20.7273V28H12.9965V20.7273H13.8772ZM21.3953 23H20.5146C20.4625 22.7467 20.3713 22.5241 20.2411 22.3324C20.1133 22.1406 19.957 21.9796 19.7724 21.8494C19.5901 21.7169 19.3877 21.6174 19.1651 21.5511C18.9426 21.4848 18.7106 21.4517 18.4691 21.4517C18.0288 21.4517 17.6299 21.563 17.2724 21.7855C16.9173 22.008 16.6344 22.3359 16.4237 22.7692C16.2153 23.2024 16.1112 23.7339 16.1112 24.3636C16.1112 24.9934 16.2153 25.5249 16.4237 25.9581C16.6344 26.3913 16.9173 26.7192 17.2724 26.9418C17.6299 27.1643 18.0288 27.2756 18.4691 27.2756C18.7106 27.2756 18.9426 27.2424 19.1651 27.1761C19.3877 27.1098 19.5901 27.0116 19.7724 26.8814C19.957 26.7488 20.1133 26.5866 20.2411 26.3949C20.3713 26.2008 20.4625 25.9782 20.5146 25.7273H21.3953C21.329 26.099 21.2082 26.4316 21.033 26.7251C20.8579 27.0187 20.6401 27.2685 20.3796 27.4744C20.1192 27.678 19.8268 27.8331 19.5025 27.9396C19.1805 28.0462 18.8361 28.0994 18.4691 28.0994C17.8489 28.0994 17.2972 27.9479 16.8143 27.6449C16.3313 27.3419 15.9514 26.911 15.6744 26.3523C15.3974 25.7936 15.2589 25.1307 15.2589 24.3636C15.2589 23.5966 15.3974 22.9337 15.6744 22.375C15.9514 21.8163 16.3313 21.3854 16.8143 21.0824C17.2972 20.7794 17.8489 20.6278 18.4691 20.6278C18.8361 20.6278 19.1805 20.6811 19.5025 20.7876C19.8268 20.8942 20.1192 21.0504 20.3796 21.2564C20.6401 21.46 20.8579 21.7086 21.033 22.0021C21.2082 22.2933 21.329 22.6259 21.3953 23ZM28.8547 24.3636C28.8547 25.1307 28.7162 25.7936 28.4393 26.3523C28.1623 26.911 27.7823 27.3419 27.2993 27.6449C26.8164 27.9479 26.2648 28.0994 25.6445 28.0994C25.0242 28.0994 24.4726 27.9479 23.9897 27.6449C23.5067 27.3419 23.1268 26.911 22.8498 26.3523C22.5728 25.7936 22.4343 25.1307 22.4343 24.3636C22.4343 23.5966 22.5728 22.9337 22.8498 22.375C23.1268 21.8163 23.5067 21.3854 23.9897 21.0824C24.4726 20.7794 25.0242 20.6278 25.6445 20.6278C26.2648 20.6278 26.8164 20.7794 27.2993 21.0824C27.7823 21.3854 28.1623 21.8163 28.4393 22.375C28.7162 22.9337 28.8547 23.5966 28.8547 24.3636ZM28.0025 24.3636C28.0025 23.7339 27.8971 23.2024 27.6864 22.7692C27.4781 22.3359 27.1952 22.008 26.8377 21.7855C26.4826 21.563 26.0849 21.4517 25.6445 21.4517C25.2042 21.4517 24.8053 21.563 24.4478 21.7855C24.0927 22.008 23.8098 22.3359 23.5991 22.7692C23.3907 23.2024 23.2866 23.7339 23.2866 24.3636C23.2866 24.9934 23.3907 25.5249 23.5991 25.9581C23.8098 26.3913 24.0927 26.7192 24.4478 26.9418C24.8053 27.1643 25.2042 27.2756 25.6445 27.2756C26.0849 27.2756 26.4826 27.1643 26.8377 26.9418C27.1952 26.7192 27.4781 26.3913 27.6864 25.9581C27.8971 25.5249 28.0025 24.9934 28.0025 24.3636ZM36.0026 20.7273V28H35.1503L31.1873 22.2898H31.1162V28H30.2356V20.7273H31.0878L35.0651 26.4517H35.1361V20.7273H36.0026Z" fill="black"/>
</svg>
