<svg width="167" height="168" viewBox="0 0 167 168" fill="none" xmlns="http://www.w3.org/2000/svg">
<ellipse cx="83.5" cy="84" rx="83.5" ry="84" fill="#262E45" fill-opacity="0.5"/>
<path d="M166.75 84C166.75 130.255 129.476 167.75 83.5 167.75C37.5237 167.75 0.25 130.255 0.25 84C0.25 37.7447 37.5237 0.25 83.5 0.25C129.476 0.25 166.75 37.7447 166.75 84Z" stroke="white" stroke-opacity="0.75" strokeWidth="0.5"/>
<path d="M82.6106 44L50 54.4818V90.1993C50 105.922 82.6106 123.636 82.6106 123.636C82.6106 123.636 115.222 105.922 115.222 90.1993V54.4818L82.6106 44Z" stroke="white" strokeWidth="1.78841" strokeMiterlimit="10"/>
<path d="M100.74 74.2847H88.2396V61.7842H76.982V74.2847H64.4824V85.5423H76.982V98.0419H88.2396V85.5423H100.74V74.2847Z" stroke="#F58500" strokeWidth="1.78841" strokeMiterlimit="10"/>
</svg>
