<svg width="477" height="290" viewBox="0 0 477 290" fill="none" xmlns="http://www.w3.org/2000/svg">
<path d="M7 7V283" stroke="#A3A2B7" stroke-width="0.75"/>
<path d="M74 7V283" stroke="#A3A2B7" stroke-width="0.75"/>
<path d="M139 7V283" stroke="#A3A2B7" stroke-width="0.75"/>
<path d="M206 7V283" stroke="#A3A2B7" stroke-width="0.75"/>
<path d="M272 7V283" stroke="#A3A2B7" stroke-width="0.75"/>
<path d="M338 7V283" stroke="#A3A2B7" stroke-width="0.75"/>
<path d="M403 7V283" stroke="#A3A2B7" stroke-width="0.75"/>
<path d="M471 7V283" stroke="#A3A2B7" stroke-width="0.75"/>
<path d="M8 8H471.5" stroke="#A3A2B7" stroke-width="0.75"/>
<path d="M8 214H471.5" stroke="#A3A2B7" stroke-width="0.75"/>
<path d="M8 283H471.5" stroke="#A3A2B7" stroke-width="0.75"/>
<path d="M8 144H471.5" stroke="#A3A2B7" stroke-width="0.75"/>
<path d="M8 76H471.5" stroke="#A3A2B7" stroke-width="0.75"/>
<circle cx="7.5" cy="75.5" r="7.5" fill="#F22525"/>
<circle cx="403.5" cy="75.5" r="7.5" fill="#F22525"/>
<circle cx="271.5" cy="75.5" r="7.5" fill="#F22525"/>
<circle cx="7.5" cy="7.5" r="7.5" fill="#565D72"/>
<circle cx="403.5" cy="7.5" r="7.5" fill="#565D72"/>
<circle cx="7.5" cy="282.5" r="7.5" fill="#565D72"/>
<circle cx="403.5" cy="282.5" r="7.5" fill="#565D72"/>
<circle cx="271.5" cy="7.5" r="7.5" fill="#565D72"/>
<circle cx="271.5" cy="282.5" r="7.5" fill="#565D72"/>
<circle cx="73.5" cy="75.5" r="7.5" fill="#565D72"/>
<circle cx="469.5" cy="75.5" r="7.5" fill="#565D72"/>
<circle cx="337.5" cy="75.5" r="7.5" fill="#565D72"/>
<circle cx="73.5" cy="7.5" r="7.5" fill="#F22525"/>
<circle cx="469.5" cy="7.5" r="7.5" fill="#4AC9D4"/>
<circle cx="73.5" cy="282.5" r="7.5" fill="#F22525"/>
<circle cx="469.5" cy="282.5" r="7.5" fill="#F22525"/>
<circle cx="337.5" cy="7.5" r="7.5" fill="#F22525"/>
<circle cx="337.5" cy="282.5" r="7.5" fill="#4AC9D4"/>
<circle cx="139.5" cy="75.5" r="7.5" fill="#F22525"/>
<circle cx="139.5" cy="7.5" r="7.5" fill="#565D72"/>
<circle cx="139.5" cy="282.5" r="7.5" fill="#565D72"/>
<circle cx="205.5" cy="75.5" r="7.5" fill="#565D72"/>
<circle cx="205.5" cy="7.5" r="7.5" fill="#F22525"/>
<circle cx="205.5" cy="282.5" r="7.5" fill="#F22525"/>
<circle cx="7.5" cy="213.5" r="7.5" fill="#F22525"/>
<circle cx="403.5" cy="213.5" r="7.5" fill="#F22525"/>
<circle cx="271.5" cy="213.5" r="7.5" fill="#F22525"/>
<circle cx="7.5" cy="144.5" r="7.5" fill="#565D72"/>
<circle cx="403.5" cy="144.5" r="7.5" fill="#565D72"/>
<circle cx="271.5" cy="144.5" r="7.5" fill="#565D72"/>
<circle cx="73.5" cy="213.5" r="7.5" fill="#565D72"/>
<circle cx="469.5" cy="213.5" r="7.5" fill="#565D72"/>
<circle cx="337.5" cy="213.5" r="7.5" fill="#565D72"/>
<circle cx="73.5" cy="144.5" r="7.5" fill="#4AC9D4"/>
<circle cx="469.5" cy="144.5" r="7.5" fill="#F22525"/>
<circle cx="337.5" cy="144.5" r="7.5" fill="#F22525"/>
<circle cx="139.5" cy="213.5" r="7.5" fill="#F22525"/>
<circle cx="139.5" cy="144.5" r="7.5" fill="#565D72"/>
<circle cx="205.5" cy="213.5" r="7.5" fill="#565D72"/>
<circle cx="205.5" cy="144.5" r="7.5" fill="#F22525"/>
</svg>
