<svg width="66" height="58" viewBox="0 0 66 58" fill="none" xmlns="http://www.w3.org/2000/svg">
<path d="M59.2645 23.5938C59.8516 24.4546 60.2795 25.4448 60.4972 26.5298C61.3696 30.8725 58.557 35.0999 54.2144 35.9729C53.2484 36.1671 52.2882 36.1786 51.3693 36.0321" stroke="#F58500" stroke-width="1.91027" stroke-miterlimit="10"/>
<path d="M19.9489 37.9424L17.3363 44.1005C17.037 44.806 16.3443 45.2644 15.5776 45.2644H8.76367" stroke="#262E45" stroke-width="1.91027" stroke-miterlimit="10"/>
<path d="M8.76367 52.2891L19.1855 52.2694C20.5914 52.2668 21.8598 51.4251 22.4087 50.1312L26.2745 41.0186" stroke="#262E45" stroke-width="1.91027" stroke-miterlimit="10"/>
<path d="M33.6428 34.6014L31.9503 38.5907C31.0206 40.7817 28.4908 41.8044 26.2997 40.8747L19.9029 38.1609C17.7118 37.2312 16.6892 34.7014 17.6188 32.5103L19.0681 29.0947" stroke="#F58500" stroke-width="1.91027" stroke-miterlimit="10"/>
<path d="M63.9986 19.5526L58.9154 17.4755L58.93 17.4392C58.93 17.4392 22.6884 2.60664 19.4403 1.37133C16.1922 0.136027 13.1727 2.1348 11.9527 5.12119L7.04712 17.1266C5.71693 20.3817 7.27699 24.0991 10.5327 25.4299L43.3136 38.8253C46.5687 40.1555 50.286 38.5948 51.6169 35.3397L53.9366 28.997L63.9992 19.5539L63.9986 19.5526Z" stroke="#262E45" stroke-width="1.91027" stroke-miterlimit="10"/>
<path d="M9.66211 11.5391L53.7963 29.0664" stroke="#262E45" stroke-width="1.91027" stroke-miterlimit="10"/>
<path d="M7.27587 41.1484H2.77082C1.79282 41.1484 1 41.9413 1 42.9193V55.0354C1 56.0134 1.79282 56.8063 2.77082 56.8063H7.27587C8.25386 56.8063 9.04669 56.0134 9.04669 55.0354V42.9193C9.04669 41.9413 8.25386 41.1484 7.27587 41.1484Z" stroke="#F58500" stroke-width="1.91027" stroke-miterlimit="10"/>
</svg>
