<svg width="297" height="253" viewBox="0 0 297 253" fill="none" xmlns="http://www.w3.org/2000/svg">
<path d="M896.208 87.5648L896.549 87.7858L896.558 87.776C899.928 89.9826 903.174 92.3163 906.432 94.6579C907.181 95.1963 907.93 95.7351 908.682 96.2729V187.93C893.917 172.075 877.183 157.785 858.482 145.632L858.21 146.051L858.482 145.632C811.174 114.911 772.067 77.3097 742.185 33.891C704.287 -21.1998 651.886 -63.0497 592.167 -88.2184C466.526 -142.916 311.14 -112.328 215.734 -13.2647C176.266 26.6393 137.282 55.5435 96.6174 75.1277C60.1921 92.3402 27.1019 117.375 0.874817 147.722V52.9884C22.2638 37.0924 43.1728 25.4135 63.853 13.8623C70.771 9.99814 77.6634 6.1483 84.5397 2.15968C112.023 -13.7823 139.19 -31.9127 166.512 -61.9707C243.523 -139.862 348.106 -184.467 458.511 -184.467H458.513H458.514H458.516H458.518H458.519H458.521H458.523H458.525H458.526H458.528H458.53H458.531H458.533H458.535H458.537H458.538H458.54H458.542H458.543H458.545H458.547H458.549H458.55H458.552H458.554H458.555H458.557H458.559H458.561H458.562H458.564H458.566H458.568H458.569H458.571H458.573H458.574H458.576H458.578H458.58H458.581H458.583H458.585H458.586H458.588H458.59H458.592H458.593H458.595H458.597H458.599H458.6H458.602H458.604H458.606H458.607H458.609H458.611H458.612H458.614H458.616H458.618H458.619H458.621H458.623H458.625H458.626H458.628H458.63H458.632H458.633H458.635H458.637H458.638H458.64H458.642H458.644H458.645H458.647H458.649H458.651H458.652H458.654H458.656H458.658H458.659H458.661H458.663H458.665H458.666H458.668H458.67H458.672H458.673H458.675H458.677H458.679H458.68H458.682H458.684H458.686H458.687H458.689H458.691H458.693H458.694H458.696H458.698H458.7H458.701H458.703H458.705H458.707H458.708H458.71H458.712H458.714H458.715H458.717H458.719H458.721H458.722H458.724H458.726H458.728H458.729H458.731H458.733H458.735H458.736H458.738H458.74H458.742H458.743H458.745H458.747H458.749H458.751H458.752H458.754H458.756H458.758H458.759H458.761H458.763H458.765H458.766H458.768H458.77H458.772H458.773H458.775H458.777H458.779H458.781H458.782H458.784H458.786H458.788H458.789H458.791H458.793H458.795H458.796H458.798H458.8H458.802H458.803H458.805H458.807H458.809H458.811H458.812H458.814H458.816H458.818H458.819H458.821H458.823H458.825H458.826H458.828H458.83H458.832H458.834H458.835H458.837H458.839H458.841H458.842H458.844H458.846H458.848H458.85H458.851H458.853H458.855H458.857H458.858H458.86H458.862H458.864H458.866H458.867H458.869H458.871H458.873H458.874H458.876H458.878H458.88H458.882H458.883H458.885H458.887H458.889H458.89H458.892H458.894H458.896H458.897H458.899H458.901H458.903H458.905H458.906H458.908H458.91H458.912H458.914H458.915H458.917H458.919H458.921H458.922H458.924H458.926H458.928H458.93H458.931H458.933H458.935H458.937H458.938H458.94H458.942H458.944H458.946H458.947H458.949H458.951H458.953H458.955H458.956H458.958H458.96H458.962H458.963H458.965H458.967H458.969H458.971H458.972H458.974H458.976H458.978H458.98H458.981H458.983H458.985H458.987H458.988H458.99H458.992H458.994H458.996H458.997H458.999H459.001H459.003H459.005H459.006H459.008H459.01H459.012H459.013H459.015H459.017H459.019H459.021H459.022H459.024H459.026H459.028H459.03H459.031H459.033H459.035H459.037H459.038H459.04H459.042H459.044H459.046H459.047H459.049H459.051H459.053H459.055H459.056H459.058H459.06H459.062H459.064H459.065H459.067H459.069H459.071H459.072H459.074H459.076H459.078H459.08H459.081H459.083H459.085H459.087H459.089H459.09H459.092H459.094H459.096H459.098H459.099H459.101H459.103H459.105H459.106H459.108H459.11H459.112H459.114H459.115H459.117H459.119H459.121H459.123H459.124H459.126H459.128H459.13H459.132H459.133H459.135H459.137H459.139H459.14H459.142H459.144H459.146H459.148H459.149H459.151H459.153H459.155H459.157H459.158H459.16H459.162H459.164H459.165H459.167H459.169H459.171H459.173H459.174H459.176H459.178H459.18H459.182H459.183H459.185H459.187H459.189H459.191H459.192H459.194H459.196H459.198H459.199H459.201H459.203H459.205H459.207H459.208H459.21H459.212H459.214H459.216H459.217H459.219H459.221H459.223H459.225H459.226H459.228H459.23H459.232H459.233H459.235H459.237H459.239H459.241H459.242H459.244H459.246H459.248H459.25H459.251H459.253H459.255H459.257H459.258H459.26H459.262H459.264H459.266H459.267H459.269H459.271H459.273H459.275H459.276H459.278H459.28H459.282H459.283H459.285H459.287H459.289H459.291H459.292H459.294H459.296H459.298H459.299H459.301H459.303H459.305H459.307H459.308H459.31H459.312H459.314H459.315H459.317H459.319H459.321H459.323H459.324H459.326H459.328H459.33H459.331H459.333H459.335H459.337H459.339H459.34H459.342H459.344H459.346H459.348H459.349H459.351H459.353H459.355H459.356H459.358H459.36H459.362H459.363H459.365H459.367H459.369H459.371H459.372H459.374H459.376H459.378H459.379H459.381H459.383H459.385H459.387H459.388H459.39H459.392H459.394H459.395H459.397H459.399H459.401H459.402H459.404H459.406H459.408H459.41H459.411H459.413H459.415H459.417C557.555 -184.467 651.099 -149.248 724.617 -87.3664C752.683 -63.7297 777.931 -36.34 799.257 -5.35393C823.961 30.56 856.576 61.817 896.208 87.5648Z" stroke="white"/>
<path d="M284.057 128.079L284.132 128.103H284.146C374.392 155.419 440.35 239.18 440.572 338.165H371.321C371.477 254.65 301.402 187.665 220.547 187.903C139.502 187.383 69.6057 254.795 69.7722 338.165H0.514268C-0.917232 215.856 105.617 118.327 221.588 118.327C242.297 118.327 263.307 121.443 284.057 128.079Z" stroke="white"/>
<path d="M725.895 174.093L725.969 174.469L726.352 174.495C817.712 180.546 892.025 249.379 906.553 338.167H835.964C818.839 263.848 728.421 220.681 659.967 255.01C684.752 75.9183 474.855 -44.5091 332.862 69.9444C308.294 59.6335 282.018 52.6544 254.603 49.4455C309.359 -14.2589 383.346 -43.4375 456.719 -43.4375C578.684 -43.4271 698.868 37.2323 725.895 174.093Z" stroke="white"/>
</svg>
