<svg width="555" height="360" viewBox="0 0 555 360" fill="none" xmlns="http://www.w3.org/2000/svg">
<rect width="555" height="360" rx="16" fill="#0A1026"/>
<path d="M45 43V319" stroke="#A3A2B7" strokeWidth="0.75"/>
<path d="M112 43V319" stroke="#A3A2B7" strokeWidth="0.75"/>
<path d="M177 43V319" stroke="#A3A2B7" strokeWidth="0.75"/>
<path d="M244 43V319" stroke="#A3A2B7" strokeWidth="0.75"/>
<path d="M310 43V319" stroke="#A3A2B7" strokeWidth="0.75"/>
<path d="M376 43V319" stroke="#A3A2B7" strokeWidth="0.75"/>
<path d="M441 43V319" stroke="#A3A2B7" strokeWidth="0.75"/>
<path d="M509 43V319" stroke="#A3A2B7" strokeWidth="0.75"/>
<path d="M46 44H509.5" stroke="#A3A2B7" strokeWidth="0.75"/>
<path d="M46 250H509.5" stroke="#A3A2B7" strokeWidth="0.75"/>
<path d="M46 319H509.5" stroke="#A3A2B7" strokeWidth="0.75"/>
<path d="M46 180H509.5" stroke="#A3A2B7" strokeWidth="0.75"/>
<path d="M46 112H509.5" stroke="#A3A2B7" strokeWidth="0.75"/>
<circle cx="45.5" cy="111.5" r="7.5" fill="#F22525"/>
<circle cx="441.5" cy="111.5" r="7.5" fill="#F22525"/>
<circle cx="309.5" cy="111.5" r="7.5" fill="#F22525"/>
<circle cx="45.5" cy="43.5" r="7.5" fill="#565D72"/>
<circle cx="441.5" cy="43.5" r="7.5" fill="#565D72"/>
<circle cx="45.5" cy="318.5" r="7.5" fill="#565D72"/>
<circle cx="441.5" cy="318.5" r="7.5" fill="#565D72"/>
<circle cx="309.5" cy="43.5" r="7.5" fill="#565D72"/>
<circle cx="309.5" cy="318.5" r="7.5" fill="#565D72"/>
<circle cx="111.5" cy="111.5" r="7.5" fill="#565D72"/>
<circle cx="507.5" cy="111.5" r="7.5" fill="#565D72"/>
<circle cx="375.5" cy="111.5" r="7.5" fill="#565D72"/>
<circle cx="111.5" cy="43.5" r="7.5" fill="#F22525"/>
<circle cx="507.5" cy="43.5" r="7.5" fill="#4AC9D4"/>
<circle cx="111.5" cy="318.5" r="7.5" fill="#F22525"/>
<circle cx="507.5" cy="318.5" r="7.5" fill="#F22525"/>
<circle cx="375.5" cy="43.5" r="7.5" fill="#F22525"/>
<circle cx="375.5" cy="318.5" r="7.5" fill="#4AC9D4"/>
<circle cx="177.5" cy="111.5" r="7.5" fill="#F22525"/>
<circle cx="177.5" cy="43.5" r="7.5" fill="#565D72"/>
<circle cx="177.5" cy="318.5" r="7.5" fill="#565D72"/>
<circle cx="243.5" cy="111.5" r="7.5" fill="#565D72"/>
<circle cx="243.5" cy="43.5" r="7.5" fill="#F22525"/>
<circle cx="243.5" cy="318.5" r="7.5" fill="#F22525"/>
<circle cx="45.5" cy="249.5" r="7.5" fill="#F22525"/>
<circle cx="441.5" cy="249.5" r="7.5" fill="#F22525"/>
<circle cx="309.5" cy="249.5" r="7.5" fill="#F22525"/>
<circle cx="45.5" cy="180.5" r="7.5" fill="#565D72"/>
<circle cx="441.5" cy="180.5" r="7.5" fill="#565D72"/>
<circle cx="309.5" cy="180.5" r="7.5" fill="#565D72"/>
<circle cx="111.5" cy="249.5" r="7.5" fill="#565D72"/>
<circle cx="507.5" cy="249.5" r="7.5" fill="#565D72"/>
<circle cx="375.5" cy="249.5" r="7.5" fill="#565D72"/>
<circle cx="111.5" cy="180.5" r="7.5" fill="#4AC9D4"/>
<circle cx="507.5" cy="180.5" r="7.5" fill="#F22525"/>
<circle cx="375.5" cy="180.5" r="7.5" fill="#F22525"/>
<circle cx="177.5" cy="249.5" r="7.5" fill="#F22525"/>
<circle cx="177.5" cy="180.5" r="7.5" fill="#565D72"/>
<circle cx="243.5" cy="249.5" r="7.5" fill="#565D72"/>
<circle cx="243.5" cy="180.5" r="7.5" fill="#F22525"/>
</svg>
