<svg width="1728" height="672" viewBox="0 0 1728 672" fill="none" xmlns="http://www.w3.org/2000/svg">
<rect width="1728" height="672" fill="#262E45"/>
<mask id="mask0_47_3531" style="mask-type:alpha" maskUnits="userSpaceOnUse" x="553" y="0" width="1175" height="672">
<rect x="553.32" width="1174.68" height="672" fill="#262E45"/>
</mask>
<g mask="url(#mask0_47_3531)">
<path d="M1215.55 -135H1215.33C1142.94 -135 1070.69 -125.259 1001.07 -105.145V-19.6782C1259.5 -103.491 1560.34 -25.2236 1745.01 171.722V59.0758C1601.06 -66.145 1408.05 -134.964 1215.55 -135Z" fill="url(#paint0_linear_47_3531)"/>
<path d="M918.964 -77.4795C833.204 -43.2587 753.48 5.77402 682.833 68.3662V180.915C751.764 111.306 830.978 50.3437 918.964 11.7572V-77.4795Z" fill="url(#paint1_linear_47_3531)"/>
<path d="M1399.13 140.893V54.9522C1340.77 37.5378 1280.45 29.0859 1220.28 29.0859C1049.79 29.0859 880.464 96.9559 759.831 221.107C731.139 250.025 708.641 266.71 682.844 278.761V372.206C719.738 350.365 753.358 338.35 788.134 306.829C942.192 138.303 1180.96 64.5958 1399.15 140.905L1399.13 140.893Z" fill="url(#paint2_linear_47_3531)"/>
<path d="M1481.24 84.7715V175.784C1543.45 208.411 1599.5 252.738 1646.28 306.83C1679.65 345.027 1702.79 388.794 1745.01 420.461V299.776C1676.77 204.593 1585.34 130.983 1481.24 84.7715Z" fill="url(#paint3_linear_47_3531)"/>
<path d="M1730.16 511.119C1683.9 481.082 1645.84 444.623 1617.01 402.741C1592.06 366.502 1562.51 334.47 1529.67 306.828C1443.65 234.459 1334.18 193.27 1219.34 193.27C1218.99 193.27 1218.62 193.27 1218.28 193.27C1089.08 193.27 966.699 245.44 876.583 336.537C812.823 406.645 749.793 421.116 682.833 470.927V583.452C713.594 547.529 752.592 517.905 795.569 497.608C843.17 474.697 888.788 440.89 934.953 394.241C1046.29 278.7 1227.64 243.02 1374.26 306.816C1443.96 336.172 1505.12 384.986 1549.35 449.244C1584.32 500.028 1630.08 544.002 1685.43 579.925C1707.68 594.372 1727.54 611.41 1745.01 630.332V521.48C1740.11 517.978 1735.26 514.415 1730.18 511.107L1730.16 511.119Z" fill="url(#paint4_linear_47_3531)"/>
<path d="M1014.57 558.376C990.256 550.605 965.64 546.957 941.377 546.957C805.352 546.957 680.399 661.428 682.419 804.914H764.528C764.005 707.59 845.567 628.788 940.16 629.396C1034.54 629.116 1116.3 707.42 1115.79 804.914H1197.9C1197.9 688.741 1120.51 590.384 1014.58 558.376H1014.57Z" fill="url(#paint5_linear_47_3531)"/>
<path d="M1531.36 612.568C1499.72 452.397 1358.98 358.016 1216.19 358.004C1129.96 358.004 1042.99 392.407 978.807 467.537C1011.31 471.234 1042.44 479.467 1071.53 491.701C1237.36 357.736 1482.94 498.827 1453 708.226C1532.92 667.304 1639.22 717.833 1658.97 804.917H1742.62C1725.87 700.613 1638.65 619.67 1531.36 612.568Z" fill="url(#paint6_linear_47_3531)"/>
<path d="M1276.41 550.595C1261.45 529.557 1238.54 521.677 1214.61 521.677C1192.1 521.677 1168.69 528.633 1150.09 538.143C1231.05 601.464 1280.46 702.047 1279.99 804.916H1362.1C1362.07 765.029 1356.46 725.858 1345.46 688.001C1330.91 637.728 1307.3 591.274 1276.41 550.595Z" fill="url(#paint7_linear_47_3531)"/>
</g>
<defs>
<linearGradient id="paint0_linear_47_3531" x1="1025.27" y1="24.2483" x2="1766.4" y2="30.7419" gradientUnits="userSpaceOnUse">
<stop stop-color="#262E45"/>
<stop offset="0.811948" stop-color="#333D5E"/>
</linearGradient>
<linearGradient id="paint1_linear_47_3531" x1="690.515" y1="56.6776" x2="925.769" y2="57.4542" gradientUnits="userSpaceOnUse">
<stop stop-color="#262E45"/>
<stop offset="0.811948" stop-color="#333D5E"/>
</linearGradient>
<linearGradient id="paint2_linear_47_3531" x1="706.147" y1="207.232" x2="1419.76" y2="212.613" gradientUnits="userSpaceOnUse">
<stop stop-color="#262E45"/>
<stop offset="0.811948" stop-color="#333D5E"/>
</linearGradient>
<linearGradient id="paint3_linear_47_3531" x1="1489.82" y1="259.059" x2="1752.61" y2="259.805" gradientUnits="userSpaceOnUse">
<stop stop-color="#262E45"/>
<stop offset="0.811948" stop-color="#333D5E"/>
</linearGradient>
<linearGradient id="paint4_linear_47_3531" x1="717.387" y1="420.19" x2="1775.55" y2="429.48" gradientUnits="userSpaceOnUse">
<stop stop-color="#262E45"/>
<stop offset="0.811948" stop-color="#333D5E"/>
</linearGradient>
<linearGradient id="paint5_linear_47_3531" x1="699.165" y1="680.887" x2="1212.74" y2="684.594" gradientUnits="userSpaceOnUse">
<stop stop-color="#262E45"/>
<stop offset="0.811948" stop-color="#333D5E"/>
</linearGradient>
<linearGradient id="paint6_linear_47_3531" x1="1003.65" y1="590.039" x2="1764.62" y2="594.737" gradientUnits="userSpaceOnUse">
<stop stop-color="#262E45"/>
<stop offset="0.811948" stop-color="#333D5E"/>
</linearGradient>
<linearGradient id="paint7_linear_47_3531" x1="1156.99" y1="668.733" x2="1368.21" y2="669.304" gradientUnits="userSpaceOnUse">
<stop stop-color="#262E45"/>
<stop offset="0.811948" stop-color="#333D5E"/>
</linearGradient>
</defs>
</svg>
