<svg width="1728" height="818" viewBox="0 0 1728 818" fill="none" xmlns="http://www.w3.org/2000/svg">
<mask id="mask0_6_1717" style="mask-type:alpha" maskUnits="userSpaceOnUse" x="554" y="0" width="1174" height="818">
<rect x="554" width="1174" height="818" fill="#262E45"/>
</mask>
<g mask="url(#mask0_6_1717)">
<path d="M1215.84 -134.135H1215.62C1143.28 -134.135 1071.07 -124.456 1001.49 -104.471V-19.5519C1259.77 -102.828 1560.43 -25.0618 1745 170.622V58.6974C1601.14 -65.721 1408.24 -134.099 1215.84 -134.135Z" fill="url(#paint0_linear_6_1717)"/>
<path d="M919.432 -76.9824C833.722 -42.9809 754.044 5.73761 683.438 67.9287V179.757C752.329 110.594 831.496 50.0217 919.432 11.6824V-76.9824Z" fill="url(#paint1_linear_6_1717)"/>
<path d="M1399.32 139.991V54.6009C1340.99 37.2981 1280.71 28.9004 1220.57 28.9004C1050.19 28.9004 880.954 96.3355 760.391 219.691C731.716 248.424 709.23 265.002 683.449 276.976V369.821C720.321 348.12 753.922 336.182 788.677 304.863C942.647 137.418 1181.28 64.1827 1399.34 140.003L1399.32 139.991Z" fill="url(#paint2_linear_6_1717)"/>
<path d="M1481.39 84.2285V174.657C1543.55 207.076 1599.58 251.119 1646.33 304.864C1679.68 342.816 1702.8 386.303 1745 417.767V297.855C1676.8 203.282 1585.42 130.144 1481.39 84.2285Z" fill="url(#paint3_linear_6_1717)"/>
<path d="M1730.16 507.844C1683.93 477.999 1645.89 441.774 1617.08 400.16C1592.14 364.153 1562.61 332.327 1529.79 304.862C1443.81 232.956 1334.41 192.031 1219.64 192.031C1219.28 192.031 1218.92 192.031 1218.58 192.031C1089.45 192.031 967.139 243.867 877.076 334.381C813.352 404.039 750.359 418.418 683.438 467.91V579.713C714.18 544.02 753.156 514.586 796.108 494.42C843.682 471.655 889.273 438.065 935.411 391.714C1046.68 276.914 1227.93 241.463 1374.47 304.85C1444.13 334.018 1505.25 382.519 1549.45 446.366C1584.4 496.824 1630.14 540.516 1685.46 576.209C1707.69 590.564 1727.54 607.492 1745 626.293V518.139C1740.1 514.659 1735.26 511.118 1730.17 507.832L1730.16 507.844Z" fill="url(#paint4_linear_6_1717)"/>
<path d="M1014.98 554.798C990.683 547.077 966.081 543.452 941.832 543.452C805.886 543.452 681.005 657.189 683.024 799.756H765.086C764.563 703.056 846.077 624.758 940.616 625.363C1034.94 625.085 1116.66 702.887 1116.15 799.756H1198.21C1198.21 684.328 1120.87 586.6 1014.99 554.798H1014.98Z" fill="url(#paint5_linear_6_1717)"/>
<path d="M1531.48 608.643C1499.85 449.498 1359.2 355.722 1216.49 355.71C1130.3 355.71 1043.39 389.893 979.24 464.541C1011.72 468.215 1042.84 476.395 1071.91 488.55C1237.65 355.444 1483.08 495.631 1453.16 703.687C1533.04 663.028 1639.27 713.233 1659.01 799.759H1742.62C1725.87 696.124 1638.7 615.699 1531.48 608.643Z" fill="url(#paint6_linear_6_1717)"/>
<path d="M1276.67 547.067C1261.72 526.164 1238.83 518.334 1214.9 518.334C1192.41 518.334 1169.01 525.245 1150.43 534.694C1231.33 597.61 1280.72 697.549 1280.25 799.758H1362.31C1362.28 760.126 1356.68 721.207 1345.68 683.593C1331.14 633.642 1307.55 587.485 1276.67 547.067Z" fill="url(#paint7_linear_6_1717)"/>
</g>
<path d="M0 781C0 747.863 26.8629 721 60 721H1668C1701.14 721 1728 747.863 1728 781V818H0V781Z" fill="white"/>
<defs>
<linearGradient id="paint0_linear_6_1717" x1="1025.68" y1="24.0931" x2="1766.38" y2="30.621" gradientUnits="userSpaceOnUse">
<stop stop-color="#F7F7F7"/>
<stop offset="0.811948" stop-color="#F0F0F0"/>
</linearGradient>
<linearGradient id="paint1_linear_6_1717" x1="691.115" y1="56.3149" x2="926.233" y2="57.0957" gradientUnits="userSpaceOnUse">
<stop stop-color="#F7F7F7"/>
<stop offset="0.811948" stop-color="#F0F0F0"/>
</linearGradient>
<linearGradient id="paint2_linear_6_1717" x1="706.738" y1="205.905" x2="1419.93" y2="211.315" gradientUnits="userSpaceOnUse">
<stop stop-color="#F7F7F7"/>
<stop offset="0.811948" stop-color="#F0F0F0"/>
</linearGradient>
<linearGradient id="paint3_linear_6_1717" x1="1489.96" y1="257.4" x2="1752.6" y2="258.149" gradientUnits="userSpaceOnUse">
<stop stop-color="#F7F7F7"/>
<stop offset="0.811948" stop-color="#F0F0F0"/>
</linearGradient>
<linearGradient id="paint4_linear_6_1717" x1="717.972" y1="417.497" x2="1775.52" y2="426.836" gradientUnits="userSpaceOnUse">
<stop stop-color="#F7F7F7"/>
<stop offset="0.811948" stop-color="#F0F0F0"/>
</linearGradient>
<linearGradient id="paint5_linear_6_1717" x1="699.761" y1="676.524" x2="1213.03" y2="680.251" gradientUnits="userSpaceOnUse">
<stop stop-color="#F7F7F7"/>
<stop offset="0.811948" stop-color="#F0F0F0"/>
</linearGradient>
<linearGradient id="paint6_linear_6_1717" x1="1004.07" y1="586.258" x2="1764.59" y2="590.981" gradientUnits="userSpaceOnUse">
<stop stop-color="#F7F7F7"/>
<stop offset="0.811948" stop-color="#F0F0F0"/>
</linearGradient>
<linearGradient id="paint7_linear_6_1717" x1="1157.32" y1="664.448" x2="1368.41" y2="665.022" gradientUnits="userSpaceOnUse">
<stop stop-color="#F7F7F7"/>
<stop offset="0.811948" stop-color="#F0F0F0"/>
</linearGradient>
</defs>
</svg>

