<svg width="167" height="168" viewBox="0 0 167 168" fill="none" xmlns="http://www.w3.org/2000/svg">
<ellipse cx="83.5" cy="84" rx="83.5" ry="84" fill="#262E45" fill-opacity="0.5"/>
<path d="M166.75 84C166.75 130.255 129.476 167.75 83.5 167.75C37.5237 167.75 0.25 130.255 0.25 84C0.25 37.7447 37.5237 0.25 83.5 0.25C129.476 0.25 166.75 37.7447 166.75 84Z" stroke="white" stroke-opacity="0.75" stroke-width="0.5"/>
<path d="M126.256 76.1221C127.065 77.3079 127.654 78.6718 127.954 80.1663C129.156 86.1481 125.281 91.9711 119.3 93.1736C117.969 93.4411 116.647 93.4569 115.381 93.2552" stroke="#F58500" stroke-width="1.78841" stroke-miterlimit="10"/>
<path d="M72.1023 95.8848L68.5036 104.367C68.0914 105.339 67.1371 105.97 66.0811 105.97H56.6953" stroke="white" stroke-width="1.78841" stroke-miterlimit="10"/>
<path d="M56.6953 115.648L71.0507 115.62C72.9873 115.617 74.7344 114.457 75.4905 112.675L80.8153 100.123" stroke="white" stroke-width="1.78841" stroke-miterlimit="10"/>
<path d="M90.963 91.2843L88.6317 96.7793C87.3512 99.7973 83.8665 101.206 80.8484 99.9254L72.0372 96.1872C69.0191 94.9067 67.6105 91.422 68.891 88.4039L70.8873 83.6992" stroke="#F58500" stroke-width="1.78841" stroke-miterlimit="10"/>
<path d="M132.779 70.5551L125.777 67.694L125.797 67.644C125.797 67.644 75.8767 47.213 71.4026 45.5115C66.9286 43.8099 62.7694 46.5631 61.0889 50.6767L54.3318 67.2134C52.4996 71.697 54.6484 76.8175 59.133 78.6506L104.287 97.102C108.77 98.9342 113.891 96.7845 115.724 92.3008L118.919 83.5641L132.78 70.5568L132.779 70.5551Z" stroke="white" stroke-width="1.78841" stroke-miterlimit="10"/>
<path d="M57.9316 59.5166L118.724 83.6594" stroke="white" stroke-width="1.78841" stroke-miterlimit="10"/>
<path d="M54.6446 100.303H48.4392C47.0921 100.303 46 101.395 46 102.742V119.431C46 120.778 47.0921 121.87 48.4392 121.87H54.6446C55.9917 121.87 57.0838 120.778 57.0838 119.431V102.742C57.0838 101.395 55.9917 100.303 54.6446 100.303Z" stroke="#F58500" stroke-width="1.78841" stroke-miterlimit="10"/>
</svg>
