<svg width="167" height="168" viewBox="0 0 167 168" fill="none" xmlns="http://www.w3.org/2000/svg">
<ellipse cx="83.5" cy="84" rx="83.5" ry="84" fill="#262E45" fill-opacity="0.5"/>
<path d="M166.75 84C166.75 130.255 129.476 167.75 83.5 167.75C37.5237 167.75 0.25 130.255 0.25 84C0.25 37.7447 37.5237 0.25 83.5 0.25C129.476 0.25 166.75 37.7447 166.75 84Z" stroke="white" stroke-opacity="0.75" stroke-width="0.5"/>
<path d="M119.464 55H47.3132C43.8265 55 41 57.8265 41 61.3132V107.465C41 110.951 43.8265 113.778 47.3132 113.778H119.464C122.951 113.778 125.778 110.951 125.778 107.465V61.3132C125.778 57.8265 122.951 55 119.464 55Z" stroke="white" stroke-width="1.78841" stroke-miterlimit="10"/>
<path d="M41.3008 68.7969H124.478" stroke="white" stroke-width="1.78841" stroke-miterlimit="10"/>
<path d="M41.3008 80.4932H124.478" stroke="white" stroke-width="1.78841" stroke-miterlimit="10"/>
<path d="M54.0781 92.4922H112.701" stroke="#F58500" stroke-width="1.78841" stroke-miterlimit="10"/>
<path d="M54.0781 101.039H112.701" stroke="#F58500" stroke-width="1.78841" stroke-miterlimit="10"/>
</svg>
