<svg width="1046" height="799" viewBox="0 0 1046 799" fill="none" xmlns="http://www.w3.org/2000/svg">
<path d="M533.546 -135H533.327C460.939 -135 388.686 -125.259 319.073 -105.145V-19.6782C577.496 -103.491 878.336 -25.2236 1063.01 171.722V59.0758C919.063 -66.145 726.055 -134.964 533.546 -135Z" fill="url(#paint0_linear_6_1717)"/>
<path d="M236.964 -77.4795C151.204 -43.2587 71.4799 5.77402 0.832893 68.3662V180.915C69.7643 111.306 148.978 50.3437 236.964 11.7572V-77.4795Z" fill="url(#paint1_linear_6_1717)"/>
<path d="M717.135 140.893V54.9522C658.765 37.5378 598.449 29.0859 538.278 29.0859C367.793 29.0859 198.464 96.9559 77.8309 221.107C49.1389 250.025 26.6404 266.71 0.844383 278.761V372.206C37.7376 350.365 71.3576 338.35 106.134 306.829C260.192 138.303 498.963 64.5958 717.147 140.905L717.135 140.893Z" fill="url(#paint2_linear_6_1717)"/>
<path d="M799.244 84.7715V175.784C861.446 208.411 917.504 252.738 964.278 306.83C997.654 345.027 1020.79 388.794 1063.01 420.461V299.776C994.771 204.593 903.341 130.983 799.244 84.7715Z" fill="url(#paint3_linear_6_1717)"/>
<path d="M1048.16 511.119C1001.9 481.082 963.84 444.623 935.014 402.741C910.058 366.502 880.514 334.47 847.673 306.828C761.646 234.459 652.183 193.27 537.342 193.27C536.989 193.27 536.624 193.27 536.283 193.27C407.084 193.27 284.699 245.44 194.583 336.537C130.823 406.645 67.7931 421.116 0.832893 470.927V583.452C31.5935 547.529 70.5917 517.905 113.569 497.608C161.17 474.697 206.787 440.89 252.953 394.241C364.289 278.7 545.64 243.02 692.264 306.816C761.962 336.172 823.118 384.986 867.349 449.244C902.319 500.028 948.083 544.002 1003.43 579.925C1025.68 594.372 1045.54 611.41 1063.01 630.332V521.48C1058.11 517.978 1053.26 514.415 1048.18 511.107L1048.16 511.119Z" fill="url(#paint4_linear_6_1717)"/>
<path d="M332.567 558.376C308.256 550.605 283.64 546.957 259.377 546.957C123.352 546.957 -1.60082 661.428 0.419063 804.914H82.5283C82.0051 707.59 163.567 628.788 258.16 629.396C352.535 629.116 434.303 707.42 433.792 804.914H515.902C515.902 688.741 438.514 590.384 332.58 558.376H332.567Z" fill="url(#paint5_linear_6_1717)"/>
<path d="M849.365 612.568C817.716 452.397 676.982 358.016 534.191 358.004C447.957 358.004 360.993 392.407 296.807 467.537C329.307 471.234 360.445 479.467 389.526 491.701C555.363 357.736 800.937 498.827 771.003 708.226C850.923 667.304 957.222 717.833 976.97 804.917H1060.62C1043.87 700.613 956.65 619.67 849.365 612.568Z" fill="url(#paint6_linear_6_1717)"/>
<path d="M594.409 550.595C579.454 529.557 556.542 521.677 532.608 521.677C510.097 521.677 486.686 528.633 468.093 538.143C549.047 601.464 598.461 702.047 597.986 804.916H680.095C680.071 765.029 674.462 725.858 663.462 688.001C648.909 637.728 625.303 591.274 594.409 550.595Z" fill="url(#paint7_linear_6_1717)"/>
<defs>
<linearGradient id="paint0_linear_6_1717" x1="343.275" y1="24.2483" x2="1084.4" y2="30.7419" gradientUnits="userSpaceOnUse">
<stop stop-color="#262E45"/>
<stop offset="0.811948" stop-color="#333D5E"/>
</linearGradient>
<linearGradient id="paint1_linear_6_1717" x1="8.51462" y1="56.6776" x2="243.769" y2="57.4542" gradientUnits="userSpaceOnUse">
<stop stop-color="#262E45"/>
<stop offset="0.811948" stop-color="#333D5E"/>
</linearGradient>
<linearGradient id="paint2_linear_6_1717" x1="24.1469" y1="207.232" x2="737.757" y2="212.613" gradientUnits="userSpaceOnUse">
<stop stop-color="#262E45"/>
<stop offset="0.811948" stop-color="#333D5E"/>
</linearGradient>
<linearGradient id="paint3_linear_6_1717" x1="807.825" y1="259.059" x2="1070.61" y2="259.805" gradientUnits="userSpaceOnUse">
<stop stop-color="#262E45"/>
<stop offset="0.811948" stop-color="#333D5E"/>
</linearGradient>
<linearGradient id="paint4_linear_6_1717" x1="35.3872" y1="420.19" x2="1093.55" y2="429.48" gradientUnits="userSpaceOnUse">
<stop stop-color="#262E45"/>
<stop offset="0.811948" stop-color="#333D5E"/>
</linearGradient>
<linearGradient id="paint5_linear_6_1717" x1="17.1652" y1="680.887" x2="530.737" y2="684.594" gradientUnits="userSpaceOnUse">
<stop stop-color="#262E45"/>
<stop offset="0.811948" stop-color="#333D5E"/>
</linearGradient>
<linearGradient id="paint6_linear_6_1717" x1="321.655" y1="590.039" x2="1082.62" y2="594.737" gradientUnits="userSpaceOnUse">
<stop stop-color="#262E45"/>
<stop offset="0.811948" stop-color="#333D5E"/>
</linearGradient>
<linearGradient id="paint7_linear_6_1717" x1="474.99" y1="668.733" x2="686.206" y2="669.304" gradientUnits="userSpaceOnUse">
<stop stop-color="#262E45"/>
<stop offset="0.811948" stop-color="#333D5E"/>
</linearGradient>
</defs>
</svg>
