<svg width="20" height="20" viewBox="0 0 20 20" fill="none" xmlns="http://www.w3.org/2000/svg">
<path d="M19.986 19.9906H15.8023V19.663C15.8023 17.3591 15.8043 15.0552 15.8012 12.7512C15.7997 11.6798 15.2336 10.89 14.2627 10.5858C13.1022 10.2222 11.7532 11.1168 11.6362 12.3305C11.6187 12.5114 11.6135 12.6941 11.6134 12.8759C11.612 15.1343 11.6124 17.3927 11.6124 19.6511V19.986H7.44141V7.43498H11.6169V8.95128C12.0278 8.59415 12.4051 8.19778 12.8465 7.89485C14.5005 6.7597 16.3556 6.97012 17.8515 8.01571C19.2379 8.98478 19.9815 10.3373 19.992 12.0436C20.008 14.6297 19.9963 17.216 19.996 19.8022C19.996 19.8557 19.9905 19.9093 19.986 19.9905V19.9906Z" fill="#262E45"/>
<path d="M4.59924 19.9901H0.443359V7.43848H4.59924V19.9901Z" fill="#262E45"/>
<path d="M5.02756 2.52435C5.02307 3.91962 3.89438 5.03922 2.50354 5.02811C1.12037 5.01705 0.00924939 3.90582 5.30355e-05 2.52456C-0.0089791 1.1496 1.13684 0.000438048 2.51734 1.26506e-07C3.90177 -0.000437795 5.03205 1.13613 5.02756 2.52435Z" fill="#262E45"/>
</svg>
