<svg width="37" height="33" viewBox="0 0 37 33" fill="none" xmlns="http://www.w3.org/2000/svg">
<path d="M11.0293 1.44112V4.39637C19.9678 1.49524 30.3693 4.20385 36.7615 11.0175V7.1174C29.9115 1.1519 19.8471 -1.11134 11.0293 1.43491V1.44112Z" fill="white"/>
<path d="M8.18782 5.48588V2.39844C5.22015 3.58373 2.46363 5.28094 0.0194092 7.44214V11.3369C2.4033 8.92908 5.14208 6.81667 8.18782 5.48056V5.48588Z" fill="white"/>
<path d="M3.66201 15.694C8.98873 9.86158 17.2476 7.30912 24.795 9.95207V6.9782C17.0542 4.66705 8.32688 6.91787 2.68609 12.7263C1.69332 13.7253 0.916135 14.3038 0.0253906 14.719V17.951C1.30118 17.1925 2.4634 16.7773 3.66733 15.6878L3.66201 15.694Z" fill="white"/>
<path d="M27.6361 8.01305V11.1608C29.7848 12.292 31.7234 13.8215 33.3425 15.6935C34.4985 17.0181 35.2988 18.529 36.7555 19.6238V15.4469C34.3956 12.1545 31.2363 9.60822 27.6307 8.00684L27.6361 8.01305Z" fill="white"/>
<path d="M36.2418 22.7664C34.6404 21.7248 33.3282 20.4668 32.3293 19.0162C31.4687 17.7644 30.4448 16.6509 29.3075 15.6999C26.3336 13.1962 22.5479 11.7696 18.5751 11.7696C14.0912 11.7572 9.84682 13.5635 6.71679 16.729C4.51389 19.1546 2.32872 19.6541 0.0175781 21.3815V25.2763C1.0831 24.0306 2.43164 23.0068 3.91769 22.3024C5.56699 21.5075 7.14442 20.3399 8.73871 18.727C12.5909 14.7302 18.8634 13.4961 23.9311 15.699C26.3389 16.7166 28.4575 18.4014 29.9862 20.6291C31.1963 22.3867 32.7791 23.91 34.6927 25.1494C35.4628 25.6489 36.1495 26.2389 36.751 26.8954V23.1275C36.5825 23.0068 36.4139 22.8808 36.2391 22.7664H36.2418Z" fill="white"/>
<path d="M11.4926 24.398C5.93608 22.6218 -0.0764506 27.0764 0.000735414 32.9266H2.84154C2.82379 29.5561 5.64685 26.8289 8.91528 26.8528C12.1775 26.8404 15.0068 29.5552 14.989 32.9266H17.8298C17.8298 28.9058 15.1514 25.5052 11.4917 24.3971L11.4926 24.398Z" fill="white"/>
<path d="M29.3689 26.2766C27.6114 17.386 16.1568 14.3527 10.2578 21.2568C11.3837 21.3828 12.4607 21.672 13.4659 22.0934C19.2025 17.4587 27.6956 22.3401 26.6603 29.5876C29.423 28.1734 33.1004 29.9185 33.7809 32.9341H36.6758C36.0983 29.3223 33.0827 26.5232 29.3689 26.2766Z" fill="white"/>
<path d="M22.941 28.8885C22.4353 27.1488 21.6226 25.542 20.5518 24.1332C19.5466 22.719 17.5123 23.026 16.1815 23.7002C18.9806 25.8916 20.6902 29.3703 20.6716 32.9333H23.5124C23.5124 31.5546 23.3198 30.1945 22.9348 28.8885H22.941Z" fill="white"/>
</svg>
