<svg width="670" height="570" viewBox="0 0 670 570" fill="none" xmlns="http://www.w3.org/2000/svg">
<path d="M324.205 -24.7363H324.062C276.921 -24.7363 229.867 -18.3891 184.533 -5.28245V50.4087C352.827 -4.20476 548.745 46.7953 669.01 175.128V101.726C575.267 20.1304 449.574 -24.7126 324.205 -24.7363Z" fill="url(#paint0_linear_47_3653)"/>
<path d="M131.062 12.7451C75.2123 35.0438 23.293 66.9941 -22.7148 107.78V181.118C22.1757 135.76 73.7621 96.0363 131.062 70.8928V12.7451Z" fill="url(#paint1_linear_47_3653)"/>
<path d="M443.766 155.039V99.0383C405.754 87.6909 366.474 82.1836 327.289 82.1836C216.263 82.1836 105.99 126.409 27.4293 207.307C8.74407 226.15 -5.90775 237.022 -22.707 244.875V305.765C1.31911 291.533 23.2136 283.704 45.861 263.164C146.189 153.351 301.685 105.322 443.774 155.047L443.766 155.039Z" fill="url(#paint2_linear_47_3653)"/>
<path d="M497.24 118.47V177.774C537.749 199.035 574.255 227.919 604.716 263.165C626.452 288.055 641.516 316.574 669.013 337.209V258.569C624.574 196.547 565.032 148.582 497.24 118.47Z" fill="url(#paint3_linear_47_3653)"/>
<path d="M659.344 396.282C629.216 376.71 604.429 352.953 585.657 325.662C569.404 302.048 550.164 281.176 528.777 263.164C472.753 216.007 401.467 189.168 326.678 189.168C326.449 189.168 326.211 189.168 325.989 189.168C241.85 189.168 162.149 223.163 103.462 282.523C61.9393 328.206 20.892 337.636 -22.7148 370.093V443.416C-2.68249 420.007 22.7145 400.704 50.7028 387.479C81.7022 372.55 111.41 350.52 141.474 320.123C213.981 244.835 332.083 221.586 427.569 263.156C472.959 282.285 512.786 314.093 541.59 355.964C564.365 389.056 594.167 417.709 630.214 441.118C644.7 450.531 657.632 461.633 669.011 473.963V403.034C665.818 400.752 662.664 398.43 659.352 396.275L659.344 396.282Z" fill="url(#paint4_linear_47_3653)"/>
<path d="M193.322 427.077C177.49 422.013 161.459 419.636 145.658 419.636C57.0738 419.636 -24.2997 494.226 -22.9843 587.724H30.4882C30.1474 524.306 83.2632 472.958 144.866 473.354C206.326 473.172 259.576 524.195 259.244 587.724H312.716C312.716 512.024 262.318 447.933 193.33 427.077H193.322Z" fill="url(#paint5_linear_47_3653)"/>
<path d="M529.877 462.388C509.266 358.018 417.615 296.519 324.624 296.511C268.465 296.511 211.831 318.928 170.031 367.884C191.197 370.293 211.475 375.658 230.414 383.629C338.412 296.336 498.338 388.273 478.845 524.719C530.891 498.055 600.117 530.98 612.977 587.725H667.456C656.545 519.759 599.744 467.016 529.877 462.388Z" fill="url(#paint6_linear_47_3653)"/>
<path d="M363.845 422.006C354.106 408.297 339.185 403.162 323.598 403.162C308.938 403.162 293.692 407.695 281.584 413.891C334.304 455.153 366.484 520.694 366.175 587.724H419.647C419.631 561.733 415.978 536.209 408.815 511.541C399.337 478.783 383.964 448.512 363.845 422.006Z" fill="url(#paint7_linear_47_3653)"/>
<defs>
<linearGradient id="paint0_linear_47_3653" x1="200.294" y1="79.0318" x2="682.941" y2="83.2582" gradientUnits="userSpaceOnUse">
<stop stop-color="#E9923E"/>
<stop offset="0.811948" stop-color="#F7AD66"/>
</linearGradient>
<linearGradient id="paint1_linear_47_3653" x1="-17.7122" y1="100.163" x2="135.494" y2="100.669" gradientUnits="userSpaceOnUse">
<stop stop-color="#E9923E"/>
<stop offset="0.811948" stop-color="#F7AD66"/>
</linearGradient>
<linearGradient id="paint2_linear_47_3653" x1="-7.53164" y1="198.266" x2="457.196" y2="201.768" gradientUnits="userSpaceOnUse">
<stop stop-color="#E9923E"/>
<stop offset="0.811948" stop-color="#F7AD66"/>
</linearGradient>
<linearGradient id="paint3_linear_47_3653" x1="502.828" y1="232.038" x2="673.964" y2="232.523" gradientUnits="userSpaceOnUse">
<stop stop-color="#E9923E"/>
<stop offset="0.811948" stop-color="#F7AD66"/>
</linearGradient>
<linearGradient id="paint4_linear_47_3653" x1="-0.211855" y1="337.032" x2="688.901" y2="343.078" gradientUnits="userSpaceOnUse">
<stop stop-color="#E9923E"/>
<stop offset="0.811948" stop-color="#F7AD66"/>
</linearGradient>
<linearGradient id="paint5_linear_47_3653" x1="-12.0786" y1="506.906" x2="322.377" y2="509.319" gradientUnits="userSpaceOnUse">
<stop stop-color="#E9923E"/>
<stop offset="0.811948" stop-color="#F7AD66"/>
</linearGradient>
<linearGradient id="paint6_linear_47_3653" x1="186.213" y1="447.707" x2="681.778" y2="450.765" gradientUnits="userSpaceOnUse">
<stop stop-color="#E9923E"/>
<stop offset="0.811948" stop-color="#F7AD66"/>
</linearGradient>
<linearGradient id="paint7_linear_47_3653" x1="286.075" y1="498.986" x2="423.626" y2="499.357" gradientUnits="userSpaceOnUse">
<stop stop-color="#E9923E"/>
<stop offset="0.811948" stop-color="#F7AD66"/>
</linearGradient>
</defs>
</svg>
